{"title":"Diamond Jackson Corporal Pleasurement 720p HD.mp4","uid":9198159,"size":935728437,"categoryP":"porn","categoryS":"movie_clips","magnet":"?xt=urn:btih:cd34de63e5aacc9cf5f1e0ec23ea6ff6fb4eac40&amp;dn=Diamond+Jackson+Corporal+Pleasurement+720p+HD.mp4&amp;tr=udp%3A%2F%2Ftracker.openbittorrent.com%3A80&amp;tr=udp%3A%2F%2Fopen.demonii.com%3A1337&amp;tr=udp%3A%2F%2Ftracker.coppersurfer.tk%3A6969&amp;tr=udp%3A%2F%2Fexodus.desync.com%3A6969","seeders":2,"leechers":3,"uploader":null,"files":1,"time":1384529716,"description":" &lt;a href=&quot;http://bayimg.com/DAChkAAFh&quot; rel=&quot;nofollow&quot; target=&quot;_NEW&quot;&gt;http://bayimg.com/DAChkAAFh&lt;/a&gt;\n\nDiamond Jackson's heard all kinds of rumors about one of the teachers on her staff. It seems Mr. D's been leaning a little hard on his female students, and it made her eager to see for herself what his unique take on discipline means. Diamond called him into her office to make a close appraisal of his technique, and get a little taste of his open palm spanking her thick mocha ass. All that filthy foreplay got this Milf Ms. Jackson so excited, she spread her legs wide open to fuck his massive rod.\n\nFormat : MPEG-4\nFormat profile : Base Media\nCodec ID : isom\nFile size : 892 MiB\nDuration : 30mn 29s\nOverall bit rate : 4 091 Kbps\nWriting application : Lavf55.1.100\n\nVideo\nID : 1\nFormat : AVC\nFormat/Info : Advanced Video Codec\nFormat profile : &lt;a class=&quot;__cf_email__&quot; href=&quot;/cdn-cgi/l/email-protection&quot; data-cfemail=&quot;723a1b151a323e415c43&quot;&gt;[email&amp;#160;protected]&lt;/a&gt;&lt;script cf-hash='f9e31' type=&quot;text/javascript&quot;&gt;\n/* &lt;![CDATA[ */!function(){try{var t=&quot;currentScript&quot;in document?document.currentScript:function(){for(var t=document.getElementsByTagName(&quot;script&quot;),e=t.length;e--;)if(t[e].getAttribute(&quot;cf-hash&quot;))return t[e]}();if(t&amp;&amp;t.previousSibling){var e,r,n,i,c=t.previousSibling,a=c.getAttribute(&quot;data-cfemail&quot;);if(a){for(e=&quot;&quot;,r=parseInt(a.substr(0,2),16),n=2;a.length-n;n+=2)i=parseInt(a.substr(n,2),16)^r,e+=String.fromCharCode(i);e=document.createTextNode(e),c.parentNode.replaceChild(e,c)}}}catch(u){}}();/* ]]&gt; */&lt;/script&gt;\nFormat settings, CABAC : Yes\nFormat settings, ReFrames : 5 frames\nCodec ID : avc1\nCodec ID/Info : Advanced Video Coding\nDuration : 30mn 29s\nBit rate : 3 800 Kbps\nWidth : 1 280 pixels\nHeight : 720 pixels\nDisplay aspect ratio : 16:9\nFrame rate mode : Constant\nFrame rate : 29.970 fps\nColor space : YUV\nChroma subsampling : 4:2:0\nBit depth : 8 bits\nScan type : Progressive\nBits/(Pixel*Frame) : 0.138\nStream size : 826 MiB (93%)\nWriting library : x264 core 130 r2274 c832fe9\n\nAudio\nID : 2\nFormat : AAC\nFormat/Info : Advanced Audio Codec\nFormat profile : LC\nCodec ID : 40\nDuration : 30mn 29s\nDuration_LastFrame : 33ms\nBit rate mode : Constant\nBit rate : 128 Kbps\nChannel(s) : 2 channels\nChannel positions : Front: L R\nSampling rate : 48.0 KHz\nCompression mode : Lossy\nStream size : 27.9 MiB (3%)\nTagged date : UTC 2013-11-08 20:15:52","torrent":{"xt":"urn:btih:cd34de63e5aacc9cf5f1e0ec23ea6ff6fb4eac40","amp;dn":"Diamond+Jackson+Corporal+Pleasurement+720p+HD.mp4","amp;tr":["udp%3A%2F%2Ftracker.openbittorrent.com%3A80","udp%3A%2F%2Fopen.demonii.com%3A1337","udp%3A%2F%2Ftracker.coppersurfer.tk%3A6969","udp%3A%2F%2Fexodus.desync.com%3A6969"],"infoHash":"cd34de63e5aacc9cf5f1e0ec23ea6ff6fb4eac40","infoHashBuffer":{"type":"Buffer","data":[205,52,222,99,229,170,204,156,245,241,224,236,35,234,111,246,251,78,172,64]},"announce":[],"urlList":[]}}